<svg width="500" height="500" viewBox="0 0 500 500" fill="none" xmlns="http://www.w3.org/2000/svg">
<path d="M449.432 327.996L410.015 367.379L277.557 235.046L252.586 259.979C249.815 262.762 246.527 264.633 242.723 265.596C243.127 266.579 243.465 267.583 243.723 268.617C243.982 269.646 244.165 270.692 244.273 271.75C244.377 272.808 244.407 273.867 244.357 274.929C244.307 275.992 244.177 277.042 243.973 278.087C243.765 279.129 243.486 280.15 243.127 281.154C242.773 282.154 242.344 283.125 241.844 284.062C241.344 285.004 240.782 285.9 240.148 286.754C239.519 287.612 238.827 288.417 238.077 289.171L232.377 294.862C231.877 295.367 231.352 295.842 230.802 296.292C230.252 296.742 229.686 297.162 229.094 297.558C228.502 297.95 227.894 298.317 227.269 298.65C226.644 298.983 226.002 299.287 225.348 299.558C224.69 299.829 224.023 300.067 223.344 300.275C222.665 300.479 221.977 300.654 221.282 300.792C220.582 300.929 219.882 301.033 219.177 301.104C218.469 301.171 217.761 301.208 217.052 301.208C216.34 301.208 215.632 301.171 214.927 301.104C214.219 301.033 213.519 300.929 212.823 300.792C212.123 300.654 211.436 300.479 210.757 300.275C210.077 300.067 209.411 299.829 208.757 299.558C208.098 299.287 207.457 298.983 206.832 298.65C206.207 298.317 205.598 297.95 205.007 297.558C204.419 297.162 203.848 296.742 203.298 296.292C202.748 295.842 202.223 295.367 201.723 294.862L139.932 233.158C139.427 232.658 138.952 232.133 138.502 231.583C138.052 231.037 137.632 230.467 137.236 229.879C136.844 229.287 136.477 228.679 136.144 228.054C135.811 227.429 135.507 226.792 135.236 226.133C134.965 225.479 134.727 224.812 134.519 224.133C134.315 223.458 134.144 222.771 134.002 222.075C133.865 221.379 133.761 220.679 133.694 219.975C133.623 219.267 133.59 218.562 133.59 217.85C133.59 217.142 133.623 216.437 133.694 215.729C133.761 215.025 133.865 214.325 134.002 213.629C134.144 212.933 134.315 212.246 134.519 211.571C134.727 210.892 134.965 210.225 135.236 209.571C135.507 208.912 135.811 208.275 136.144 207.65C136.477 207.025 136.844 206.417 137.236 205.825C137.632 205.237 138.052 204.667 138.502 204.121C138.952 203.571 139.427 203.046 139.932 202.546L145.627 196.854C146.382 196.104 147.19 195.412 148.044 194.783C148.902 194.15 149.798 193.587 150.74 193.087C151.677 192.587 152.648 192.162 153.652 191.804C154.657 191.45 155.677 191.171 156.723 190.962C157.765 190.758 158.819 190.629 159.882 190.579C160.944 190.529 162.007 190.558 163.065 190.662C164.123 190.771 165.169 190.95 166.202 191.212C167.236 191.471 168.24 191.804 169.223 192.212C170.202 188.417 172.082 185.129 174.861 182.358L264.165 93.0417C266.944 90.2667 270.24 88.3833 274.044 87.3958C273.636 86.4167 273.302 85.4083 273.044 84.3792C272.786 83.35 272.602 82.3042 272.498 81.2458C272.39 80.1917 272.365 79.1333 272.415 78.0708C272.465 77.0083 272.594 75.9583 272.798 74.9167C273.002 73.8708 273.286 72.85 273.64 71.85C273.998 70.85 274.423 69.8792 274.923 68.9417C275.423 68.0042 275.986 67.1042 276.619 66.25C277.248 65.3958 277.94 64.5917 278.69 63.8375L284.448 58.1583C284.948 57.6583 285.473 57.1833 286.023 56.7333C286.573 56.2833 287.144 55.8625 287.732 55.4667C288.323 55.0708 288.932 54.7083 289.557 54.375C290.182 54.0416 290.823 53.7375 291.482 53.4667C292.136 53.1958 292.802 52.9542 293.482 52.75C294.161 52.5416 294.852 52.3708 295.548 52.2333C296.244 52.0958 296.944 51.9917 297.652 51.9208C298.357 51.85 299.065 51.8167 299.777 51.8167C300.486 51.8167 301.194 51.85 301.902 51.9208C302.607 51.9917 303.307 52.0958 304.007 52.2333C304.702 52.3708 305.39 52.5416 306.069 52.75C306.748 52.9542 307.415 53.1958 308.073 53.4667C308.727 53.7375 309.369 54.0416 309.994 54.375C310.619 54.7083 311.227 55.0708 311.819 55.4667C312.411 55.8625 312.977 56.2833 313.527 56.7333C314.077 57.1833 314.602 57.6583 315.102 58.1583L376.848 119.879C377.352 120.383 377.827 120.908 378.277 121.454C378.727 122.004 379.152 122.571 379.544 123.162C379.94 123.754 380.307 124.358 380.64 124.987C380.973 125.612 381.277 126.25 381.548 126.908C381.819 127.562 382.061 128.229 382.265 128.908C382.473 129.587 382.644 130.275 382.782 130.971C382.923 131.667 383.023 132.367 383.094 133.071C383.165 133.779 383.198 134.487 383.198 135.196C383.198 135.904 383.165 136.612 383.094 137.317C383.023 138.025 382.923 138.725 382.782 139.421C382.644 140.117 382.473 140.804 382.265 141.483C382.061 142.158 381.819 142.829 381.548 143.483C381.277 144.137 380.973 144.779 380.64 145.404C380.307 146.029 379.94 146.637 379.544 147.225C379.152 147.817 378.727 148.387 378.277 148.933C377.827 149.483 377.352 150.008 376.848 150.508L371.152 156.2C370.398 156.95 369.59 157.642 368.736 158.271C367.877 158.904 366.982 159.467 366.04 159.967C365.102 160.467 364.132 160.892 363.127 161.25C362.123 161.604 361.102 161.883 360.057 162.092C359.015 162.296 357.961 162.425 356.898 162.475C355.836 162.525 354.773 162.496 353.715 162.392C352.657 162.283 351.611 162.104 350.577 161.842C349.544 161.583 348.54 161.25 347.557 160.842C346.577 164.637 344.698 167.925 341.919 170.696L316.961 195.679L449.432 327.996ZM410.015 349.871L431.923 327.996L308.198 204.4L286.307 226.275L410.015 349.871ZM368.086 141.721C368.519 141.292 368.902 140.821 369.244 140.317C369.582 139.808 369.869 139.275 370.102 138.708C370.336 138.146 370.515 137.567 370.632 136.967C370.752 136.371 370.811 135.767 370.811 135.154C370.811 134.546 370.752 133.942 370.632 133.346C370.515 132.746 370.336 132.167 370.102 131.6C369.869 131.037 369.582 130.504 369.244 129.996C368.902 129.487 368.519 129.021 368.086 128.587L306.34 66.9C305.911 66.4708 305.44 66.0875 304.932 65.7458C304.427 65.4083 303.89 65.125 303.327 64.8917C302.765 64.6583 302.186 64.4833 301.586 64.3625C300.99 64.2458 300.386 64.1875 299.777 64.1875C299.165 64.1875 298.561 64.2458 297.965 64.3625C297.369 64.4833 296.786 64.6583 296.223 64.8917C295.661 65.125 295.123 65.4083 294.619 65.7458C294.111 66.0875 293.644 66.4708 293.211 66.9L287.515 72.5917C287.082 73.025 286.694 73.4917 286.357 74C286.019 74.5083 285.732 75.0417 285.498 75.6042C285.265 76.1667 285.086 76.75 284.969 77.3458C284.848 77.9458 284.79 78.55 284.79 79.1583C284.79 79.7708 284.848 80.375 284.969 80.9708C285.086 81.5708 285.265 82.15 285.498 82.7125C285.732 83.275 286.019 83.8125 286.357 84.3208C286.694 84.825 287.082 85.2958 287.515 85.725L349.319 147.4C349.752 147.829 350.223 148.217 350.727 148.554C351.236 148.896 351.773 149.179 352.336 149.412C352.898 149.646 353.482 149.825 354.082 149.942C354.677 150.062 355.282 150.121 355.894 150.121C356.502 150.121 357.107 150.062 357.707 149.942C358.307 149.825 358.886 149.646 359.452 149.412C360.015 149.179 360.552 148.896 361.057 148.554C361.565 148.217 362.036 147.829 362.465 147.4L368.086 141.721ZM335.882 155.458C335.886 154.229 335.652 153.042 335.182 151.904C334.707 150.767 334.032 149.767 333.157 148.9L286.09 101.858C285.657 101.429 285.19 101.042 284.682 100.704C284.173 100.367 283.636 100.079 283.073 99.8458C282.511 99.6125 281.927 99.4333 281.332 99.3167C280.732 99.1958 280.127 99.1375 279.515 99.1375C278.907 99.1375 278.302 99.1958 277.702 99.3167C277.102 99.4333 276.523 99.6125 275.961 99.8458C275.394 100.079 274.861 100.367 274.352 100.704C273.844 101.042 273.377 101.429 272.944 101.858L183.652 191.037C183.223 191.467 182.84 191.937 182.502 192.442C182.161 192.95 181.877 193.483 181.644 194.046C181.411 194.608 181.236 195.187 181.115 195.787C180.998 196.383 180.936 196.987 180.936 197.596C180.936 198.204 180.998 198.808 181.115 199.404C181.236 200.004 181.411 200.583 181.644 201.146C181.877 201.708 182.161 202.242 182.502 202.75C182.84 203.254 183.223 203.725 183.652 204.154L230.736 251.196C231.169 251.625 231.64 252.012 232.144 252.35C232.652 252.692 233.19 252.975 233.752 253.208C234.315 253.442 234.898 253.621 235.498 253.737C236.094 253.858 236.698 253.917 237.311 253.917C237.919 253.917 238.523 253.858 239.123 253.737C239.723 253.621 240.302 253.442 240.869 253.208C241.432 252.975 241.965 252.692 242.473 252.35C242.982 252.012 243.452 251.625 243.882 251.196L268.811 226.275L296.586 198.525L333.157 161.954C334.027 161.096 334.698 160.104 335.169 158.979C335.64 157.854 335.877 156.679 335.882 155.458ZM229.265 280.479C229.698 280.046 230.086 279.579 230.423 279.071C230.761 278.562 231.048 278.029 231.282 277.467C231.515 276.9 231.694 276.321 231.811 275.721C231.932 275.125 231.99 274.521 231.99 273.912C231.99 273.3 231.932 272.696 231.811 272.1C231.694 271.5 231.515 270.921 231.282 270.358C231.048 269.792 230.761 269.258 230.423 268.75C230.086 268.246 229.698 267.775 229.265 267.346L167.519 205.592C167.09 205.162 166.619 204.779 166.115 204.442C165.607 204.104 165.073 203.817 164.507 203.583C163.944 203.35 163.365 203.175 162.765 203.058C162.169 202.937 161.565 202.879 160.957 202.879C160.348 202.879 159.744 202.937 159.144 203.058C158.548 203.175 157.965 203.35 157.402 203.583C156.84 203.817 156.307 204.104 155.798 204.442C155.29 204.779 154.823 205.162 154.39 205.592L148.694 211.287C148.261 211.717 147.877 212.187 147.536 212.692C147.198 213.2 146.911 213.733 146.677 214.296C146.444 214.862 146.265 215.442 146.148 216.042C146.027 216.637 145.969 217.242 145.969 217.85C145.969 218.462 146.027 219.067 146.148 219.662C146.265 220.262 146.444 220.842 146.677 221.404C146.911 221.971 147.198 222.504 147.536 223.012C147.877 223.517 148.261 223.987 148.694 224.417L210.44 286.092C210.869 286.521 211.34 286.908 211.848 287.246C212.352 287.583 212.89 287.867 213.452 288.1C214.015 288.333 214.594 288.508 215.194 288.629C215.79 288.746 216.394 288.808 217.002 288.808C217.615 288.808 218.219 288.746 218.815 288.629C219.415 288.508 219.994 288.333 220.557 288.1C221.119 287.867 221.657 287.583 222.161 287.246C222.669 286.908 223.136 286.521 223.569 286.092L229.265 280.479Z" fill="#1E1E1E"/>
<path d="M269.587 404.504V447.817H50.5039V404.504H78.1247C78.3039 403.434 78.5331 402.375 78.8081 401.321C79.0831 400.271 79.4039 399.234 79.7664 398.213C80.1331 397.188 80.5414 396.184 80.9956 395.196C81.4497 394.209 81.9456 393.246 82.4872 392.3C83.0247 391.359 83.6039 390.442 84.2206 389.546C84.8414 388.654 85.4997 387.792 86.1914 386.954C86.8872 386.121 87.6206 385.317 88.3831 384.546C89.1497 383.775 89.9456 383.038 90.7789 382.338C91.6081 381.638 92.4664 380.975 93.3539 380.35C94.2456 379.721 95.1581 379.138 96.0956 378.592C97.0372 378.046 97.9997 377.542 98.9831 377.079C99.9664 376.621 100.971 376.204 101.991 375.829C103.012 375.459 104.046 375.129 105.096 374.846C106.146 374.563 107.204 374.329 108.275 374.138C109.346 373.95 110.421 373.804 111.504 373.713C112.583 373.617 113.671 373.567 114.758 373.567H205.333C206.416 373.567 207.504 373.617 208.587 373.713C209.671 373.809 210.746 373.95 211.816 374.138C212.887 374.329 213.946 374.567 214.996 374.846C216.046 375.129 217.079 375.459 218.1 375.834C219.121 376.204 220.125 376.621 221.108 377.084C222.091 377.546 223.054 378.046 223.991 378.592C224.933 379.138 225.846 379.725 226.737 380.35C227.625 380.975 228.483 381.642 229.312 382.342C230.146 383.042 230.941 383.779 231.708 384.55C232.471 385.321 233.204 386.121 233.896 386.959C234.591 387.792 235.25 388.659 235.866 389.55C236.487 390.442 237.066 391.359 237.604 392.304C238.141 393.246 238.637 394.213 239.091 395.2C239.546 396.184 239.954 397.192 240.321 398.213C240.687 399.238 241.008 400.271 241.279 401.325C241.554 402.375 241.783 403.434 241.962 404.504H269.587ZM257.2 435.442V416.879H62.8872V435.442H257.2ZM90.7581 404.504H229.329C228.987 403.188 228.541 401.904 227.987 400.659C227.437 399.413 226.783 398.221 226.033 397.079C225.283 395.942 224.446 394.875 223.516 393.875C222.591 392.875 221.587 391.959 220.508 391.121C219.429 390.288 218.291 389.55 217.091 388.9C215.887 388.254 214.641 387.713 213.35 387.271C212.062 386.834 210.741 386.5 209.396 386.275C208.05 386.054 206.696 385.942 205.333 385.942H114.758C113.391 385.942 112.037 386.054 110.691 386.275C109.346 386.5 108.029 386.834 106.737 387.271C105.446 387.713 104.2 388.254 103 388.9C101.796 389.55 100.658 390.288 99.5789 391.121C98.4997 391.959 97.4956 392.875 96.5706 393.875C95.6414 394.875 94.8039 395.942 94.0539 397.079C93.3039 398.221 92.6539 399.413 92.0997 400.659C91.5456 401.904 91.0997 403.188 90.7581 404.504Z" fill="#1E1E1E"/>
</svg>
