<svg width="500" height="500" viewBox="0 0 500 500" fill="none" xmlns="http://www.w3.org/2000/svg">
<g clip-path="url(#clip0_29_39)">
<path d="M412.411 217.2C420.486 201.217 417.144 182.242 404.09 169.983L385.553 152.575C381.353 148.629 378.89 144.367 377.578 138.75L371.778 113.983C367.694 96.5458 352.944 84.1583 335.069 83.1625L309.686 81.75C303.932 81.4333 299.311 79.7458 294.698 76.2917L274.344 61.05C260.015 50.3167 240.757 50.3167 226.428 61.05L206.078 76.2917C201.461 79.7458 196.836 81.4333 191.082 81.75L165.703 83.1625C147.832 84.1583 133.078 96.5458 128.994 113.983L123.194 138.75C121.882 144.362 119.419 148.629 115.219 152.575L96.6859 169.983C83.6317 182.242 80.2859 201.217 88.3609 217.2L99.8317 239.9C102.432 245.05 103.286 249.896 102.598 255.621L99.5817 280.879C97.4609 298.662 107.086 315.35 123.544 322.4L146.911 332.417C149.698 333.612 152.057 335.062 154.132 336.867L118.423 413.6C117.448 415.7 117.719 418.162 119.128 420C120.532 421.837 122.84 422.737 125.119 422.337L160.519 416.15L178.573 447.237C179.69 449.158 181.736 450.329 183.94 450.329C184.032 450.329 184.128 450.325 184.219 450.321C186.532 450.217 188.59 448.837 189.565 446.742L220.84 379.525L242.411 373.004C247.923 371.337 252.848 371.337 258.361 373.004L280.982 379.846L312.107 446.742C313.082 448.837 315.144 450.217 317.453 450.321C317.548 450.325 317.64 450.329 317.736 450.329C319.936 450.329 321.982 449.158 323.098 447.237L341.153 416.15L376.553 422.337C378.828 422.733 381.14 421.837 382.548 420C383.953 418.162 384.223 415.7 383.248 413.6L347.29 336.321C349.207 334.771 351.357 333.487 353.861 332.412L377.228 322.4C393.686 315.35 403.311 298.662 401.19 280.875L398.173 255.621C397.486 249.896 398.34 245.046 400.94 239.9L412.411 217.2ZM183.332 430.717L169.078 406.171C167.769 403.925 165.203 402.729 162.644 403.175L134.694 408.062L162.628 348.025L173.048 363.967C180.54 375.429 192.89 381.971 205.953 382.1L183.332 430.717ZM339.028 403.175C336.469 402.729 333.903 403.921 332.594 406.171L318.34 430.717L295.715 382.087C308.444 381.675 320.403 375.171 327.728 363.962L338.669 347.221L366.978 408.062L339.028 403.175ZM389.865 234.3C386.198 241.562 384.882 249.017 385.848 257.096L388.865 282.35C390.353 294.808 383.869 306.05 372.344 310.987L348.973 321C341.498 324.204 335.703 329.071 331.253 335.879L317.34 357.167C310.478 367.667 298.286 372.104 286.286 368.475L261.953 361.117C254.169 358.767 246.603 358.767 238.819 361.117L214.486 368.475C202.486 372.104 190.294 367.667 183.432 357.167L169.519 335.879C165.069 329.071 159.273 324.204 151.798 321L128.428 310.987C116.903 306.05 110.419 294.808 111.907 282.35L114.923 257.096C115.89 249.021 114.573 241.562 110.907 234.3L99.4359 211.6C93.7817 200.404 96.0359 187.621 105.178 179.037L123.711 161.629C129.64 156.062 133.423 149.504 135.278 141.583L141.078 116.821C143.936 104.604 153.873 96.2625 166.39 95.5625L191.773 94.15C199.89 93.7 207.003 91.1083 213.511 86.2333L233.861 70.9917C238.882 67.2333 244.632 65.3542 250.386 65.3542C256.14 65.3542 261.89 67.2333 266.911 70.9917L287.261 86.2333C293.769 91.1083 300.882 93.7 308.998 94.15L334.382 95.5625C346.898 96.2583 356.836 104.604 359.694 116.821L365.494 141.583C367.348 149.504 371.132 156.062 377.061 161.629L395.594 179.037C404.736 187.621 406.99 200.404 401.336 211.6L389.865 234.3ZM250.386 112.442C192.465 112.442 145.344 159.592 145.344 217.546C145.344 275.504 192.465 322.654 250.386 322.654C308.307 322.654 355.428 275.504 355.428 217.546C355.428 159.592 308.307 112.442 250.386 112.442ZM250.386 310.233C199.307 310.233 157.753 268.654 157.753 217.546C157.753 166.437 199.307 124.858 250.386 124.858C301.465 124.858 343.019 166.437 343.019 217.546C343.019 268.654 301.465 310.233 250.386 310.233ZM295.757 167.167C290.19 167.187 284.969 169.379 281.057 173.333L237.382 217.467L219.707 199.783C211.569 191.642 198.332 191.642 190.198 199.783C182.065 207.921 182.065 221.167 190.198 229.308L222.682 261.808C226.748 265.879 232.094 267.912 237.436 267.912C242.778 267.912 248.119 265.879 252.19 261.808C264.498 249.492 303.386 210.025 310.632 202.708C318.715 194.55 318.669 181.329 310.54 173.237C306.586 169.304 301.323 167.137 295.757 167.167ZM301.819 193.967C294.565 201.292 255.694 240.742 243.415 253.029C240.119 256.329 234.753 256.329 231.457 253.029L198.973 220.529C195.678 217.229 195.678 211.862 198.973 208.562C200.623 206.912 202.786 206.092 204.953 206.092C207.119 206.092 209.286 206.917 210.932 208.562L233.015 230.662C234.182 231.825 235.761 232.479 237.407 232.479C237.411 232.479 237.415 232.479 237.419 232.479C239.073 232.475 240.653 231.812 241.815 230.642L289.873 182.071C291.453 180.479 293.561 179.596 295.807 179.587C295.819 179.587 295.828 179.587 295.84 179.587C298.086 179.587 300.198 180.458 301.79 182.042C305.078 185.312 305.09 190.662 301.819 193.967Z" fill="#1E1E1E"/>
</g>
<defs>
<clipPath id="clip0_29_39">
<rect width="400" height="400" fill="white" transform="translate(50 50)"/>
</clipPath>
</defs>
</svg>
