<svg width="500" height="500" viewBox="0 0 500 500" fill="none" xmlns="http://www.w3.org/2000/svg">
<path d="M351.118 334.584L295.598 322.26V308.776C304.752 303.482 312.737 296.79 319.549 288.709H340.789C341.427 288.709 342.057 288.68 342.691 288.617C343.321 288.555 343.947 288.463 344.569 288.338C345.19 288.217 345.808 288.063 346.413 287.879C347.022 287.691 347.618 287.478 348.202 287.237C348.791 286.995 349.362 286.723 349.921 286.427C350.48 286.127 351.022 285.801 351.552 285.447C352.078 285.096 352.587 284.721 353.079 284.316C353.567 283.916 354.039 283.49 354.485 283.04C354.936 282.593 355.361 282.126 355.762 281.634C356.166 281.146 356.542 280.637 356.897 280.107C357.247 279.581 357.572 279.039 357.873 278.48C358.173 277.921 358.44 277.349 358.686 276.761C358.928 276.177 359.141 275.58 359.325 274.975C359.508 274.366 359.663 273.753 359.788 273.131C359.909 272.51 360.005 271.884 360.067 271.254C360.13 270.624 360.159 269.99 360.159 269.356V262.906C360.793 262.906 361.427 262.872 362.057 262.81C362.687 262.747 363.317 262.656 363.939 262.53C364.56 262.409 365.174 262.255 365.783 262.071C366.388 261.888 366.984 261.675 367.573 261.429C368.157 261.187 368.728 260.916 369.291 260.62C369.85 260.319 370.393 259.994 370.918 259.643C371.448 259.289 371.957 258.913 372.445 258.509C372.938 258.108 373.405 257.683 373.855 257.236C374.302 256.786 374.727 256.318 375.132 255.826C375.533 255.338 375.912 254.829 376.263 254.303C376.617 253.774 376.943 253.231 377.239 252.672C377.539 252.113 377.81 251.542 378.052 250.957C378.294 250.369 378.511 249.773 378.695 249.168C378.878 248.563 379.033 247.945 379.154 247.324C379.279 246.702 379.371 246.076 379.433 245.446C379.496 244.816 379.529 244.182 379.529 243.548V204.841C379.525 203.848 379.446 202.859 379.291 201.879C379.137 200.899 378.908 199.939 378.607 198.992C378.303 198.045 377.927 197.131 377.485 196.243C377.043 195.354 376.534 194.507 375.958 193.698C375.382 192.888 374.748 192.125 374.06 191.416C373.367 190.702 372.625 190.047 371.832 189.451C371.039 188.85 370.205 188.316 369.333 187.849C368.457 187.377 367.552 186.977 366.617 186.647V166.13C366.617 164.227 366.567 162.329 366.475 160.431C366.384 158.533 366.242 156.639 366.054 154.749C365.87 152.855 365.637 150.969 365.357 149.092C365.078 147.21 364.752 145.337 364.381 143.472C364.01 141.611 363.597 139.755 363.134 137.911C362.67 136.067 362.162 134.24 361.611 132.421C361.06 130.602 360.464 128.795 359.821 127.005C359.183 125.216 358.499 123.443 357.769 121.69C357.043 119.934 356.271 118.194 355.457 116.48C354.644 114.761 353.788 113.063 352.892 111.386C351.999 109.709 351.06 108.057 350.084 106.425C349.103 104.798 348.085 103.192 347.03 101.611C345.974 100.03 344.877 98.4778 343.747 96.9508C342.612 95.4239 341.444 93.9262 340.238 92.4577C339.028 90.9892 337.789 89.5499 336.513 88.1397C335.232 86.7338 333.922 85.3571 332.578 84.0137C331.235 82.6703 329.854 81.3604 328.448 80.0838C327.038 78.8071 325.599 77.5681 324.126 76.3582C322.658 75.1525 321.16 73.9844 319.633 72.8538C318.102 71.7232 316.55 70.626 314.969 69.5705C313.388 68.515 311.781 67.4971 310.15 66.5208C308.519 65.5446 306.863 64.6101 305.186 63.7131C303.508 62.8162 301.81 61.9609 300.092 61.1516C298.373 60.338 296.633 59.5662 294.877 58.8403C293.12 58.1144 291.347 57.4302 289.553 56.7877C287.764 56.1494 285.957 55.5528 284.138 55.0021C282.319 54.4473 280.488 53.9425 278.64 53.4794C276.796 53.0205 274.943 52.6033 273.074 52.232C271.209 51.8607 269.336 51.5353 267.455 51.2557C265.573 50.9762 263.687 50.7468 261.793 50.559C259.903 50.3713 258.005 50.2336 256.107 50.1418C254.209 50.0459 252.306 50 250.404 50C248.502 50 246.603 50.0459 244.701 50.1418C242.803 50.2336 240.909 50.3713 239.015 50.559C237.121 50.7468 235.235 50.9762 233.353 51.2557C231.472 51.5353 229.599 51.8607 227.734 52.232C225.869 52.6033 224.012 53.0205 222.168 53.4794C220.324 53.9425 218.489 54.4473 216.67 55.0021C214.851 55.5528 213.044 56.1494 211.255 56.7877C209.465 57.4302 207.692 58.1144 205.931 58.8403C204.175 59.5662 202.439 60.338 200.716 61.1516C198.998 61.9609 197.3 62.8162 195.622 63.7131C193.945 64.6101 192.293 65.5446 190.662 66.5208C189.031 67.4971 187.425 68.515 185.843 69.5705C184.262 70.626 182.706 71.7232 181.179 72.8538C179.652 73.9844 178.15 75.1525 176.682 76.3582C175.213 77.5681 173.77 78.8071 172.364 80.0838C170.954 81.3604 169.577 82.6703 168.23 84.0137C166.886 85.3571 165.576 86.7338 164.3 88.1397C163.023 89.5499 161.78 90.9892 160.574 92.4577C159.364 93.9262 158.196 95.4239 157.066 96.9508C155.931 98.4778 154.838 100.03 153.778 101.611C152.723 103.192 151.705 104.798 150.728 106.425C149.748 108.057 148.813 109.709 147.916 111.386C147.02 113.063 146.164 114.761 145.351 116.48C144.537 118.194 143.77 119.934 143.04 121.69C142.314 123.443 141.629 125.216 140.987 127.005C140.349 128.795 139.752 130.602 139.197 132.421C138.646 134.24 138.138 136.067 137.679 137.911C137.216 139.755 136.798 141.611 136.427 143.472C136.056 145.337 135.73 147.21 135.451 149.092C135.171 150.969 134.942 152.855 134.754 154.749C134.566 156.639 134.429 158.533 134.333 160.431C134.241 162.329 134.195 164.227 134.195 166.13V186.647C133.256 186.977 132.351 187.377 131.479 187.849C130.603 188.316 129.769 188.85 128.976 189.451C128.183 190.047 127.441 190.702 126.752 191.416C126.06 192.125 125.426 192.888 124.85 193.698C124.278 194.507 123.769 195.354 123.323 196.243C122.881 197.131 122.505 198.045 122.205 198.992C121.9 199.939 121.671 200.899 121.517 201.879C121.362 202.859 121.283 203.848 121.283 204.841V243.548C121.283 244.182 121.312 244.816 121.375 245.446C121.437 246.076 121.529 246.702 121.654 247.324C121.779 247.945 121.934 248.563 122.117 249.168C122.301 249.773 122.514 250.369 122.756 250.957C122.998 251.542 123.269 252.113 123.569 252.672C123.87 253.231 124.195 253.774 124.545 254.303C124.9 254.829 125.275 255.338 125.68 255.826C126.081 256.318 126.506 256.786 126.957 257.236C127.403 257.683 127.875 258.108 128.363 258.509C128.855 258.913 129.364 259.289 129.89 259.643C130.415 259.994 130.962 260.319 131.521 260.62C132.08 260.916 132.651 261.187 133.24 261.429C133.824 261.675 134.42 261.888 135.029 262.071C135.634 262.255 136.248 262.409 136.873 262.53C137.495 262.656 138.121 262.747 138.751 262.81C139.385 262.872 140.015 262.906 140.649 262.906H166.089C167.933 267.691 170.17 272.293 172.794 276.702C175.422 281.112 178.401 285.272 181.73 289.176C185.063 293.081 188.701 296.682 192.64 299.969C196.582 303.261 200.771 306.194 205.214 308.776V322.26L149.69 334.584C147.554 335.047 145.438 335.597 143.352 336.24C141.262 336.882 139.206 337.613 137.178 338.434C135.15 339.252 133.16 340.153 131.212 341.142C129.264 342.127 127.357 343.195 125.501 344.346C123.64 345.493 121.834 346.72 120.077 348.021C118.325 349.327 116.627 350.7 114.992 352.148C113.356 353.595 111.783 355.11 110.273 356.691C108.767 358.272 107.328 359.916 105.959 361.618C104.591 363.32 103.298 365.08 102.08 366.891C100.861 368.706 99.7224 370.567 98.6627 372.477C97.5989 374.388 96.6227 376.341 95.7299 378.335C94.8371 380.329 94.0277 382.356 93.3102 384.417C92.5884 386.478 91.9543 388.568 91.4119 390.684C90.8696 392.803 90.419 394.935 90.0561 397.092C89.6973 399.244 89.4303 401.41 89.2509 403.587C89.0757 405.765 88.9922 407.947 89.0006 410.129V443.55C89.0006 443.972 89.0423 444.393 89.1257 444.81C89.2092 445.223 89.3302 445.628 89.4929 446.02C89.6556 446.408 89.8558 446.783 90.0894 447.134C90.3231 447.484 90.5942 447.814 90.8905 448.11C91.1908 448.411 91.5162 448.678 91.8709 448.915C92.2213 449.149 92.5968 449.349 92.9848 449.512C93.3769 449.67 93.7816 449.796 94.1988 449.879C94.6118 449.958 95.0332 450 95.4587 450H405.353C405.775 450 406.196 449.958 406.613 449.879C407.026 449.796 407.431 449.67 407.823 449.512C408.215 449.349 408.587 449.149 408.937 448.915C409.292 448.678 409.617 448.411 409.918 448.11C410.218 447.814 410.485 447.484 410.719 447.134C410.956 446.783 411.152 446.408 411.315 446.02C411.478 445.628 411.603 445.223 411.682 444.81C411.766 444.393 411.807 443.972 411.807 443.55V410.129C411.816 407.947 411.732 405.765 411.557 403.587C411.382 401.41 411.111 399.244 410.752 397.092C410.389 394.935 409.938 392.803 409.396 390.684C408.854 388.568 408.22 386.478 407.502 384.417C406.78 382.356 405.971 380.329 405.078 378.335C404.185 376.341 403.209 374.388 402.149 372.477C401.09 370.567 399.951 368.706 398.733 366.891C397.514 365.08 396.221 363.32 394.853 361.618C393.484 359.916 392.045 358.272 390.535 356.691C389.029 355.11 387.456 353.595 385.816 352.148C384.181 350.7 382.483 349.327 380.731 348.021C378.974 346.72 377.168 345.493 375.311 344.346C373.451 343.195 371.548 342.127 369.596 341.142C367.648 340.153 365.658 339.252 363.63 338.434C361.607 337.613 359.546 336.882 357.46 336.24C355.37 335.597 353.259 335.047 351.118 334.584ZM305.023 337.55L280.555 376.712L260.8 364.839L291.21 334.517L305.023 337.55ZM347.247 269.356C347.247 269.781 347.205 270.198 347.122 270.616C347.038 271.029 346.917 271.433 346.755 271.825C346.592 272.218 346.396 272.589 346.158 272.939C345.924 273.294 345.657 273.619 345.357 273.916C345.057 274.216 344.731 274.483 344.377 274.721C344.026 274.954 343.655 275.155 343.263 275.317C342.871 275.48 342.466 275.601 342.049 275.684C341.636 275.768 341.214 275.805 340.789 275.805H328.59C331.085 271.675 333.233 267.378 335.044 262.906H347.247V269.356ZM327.877 185.483H307.413C304.827 185.487 302.249 185.321 299.687 184.991C297.121 184.661 294.589 184.169 292.086 183.514C289.583 182.859 287.134 182.046 284.739 181.078C282.34 180.106 280.016 178.988 277.763 177.719C275.511 176.447 273.345 175.041 271.276 173.493C269.203 171.945 267.242 170.272 265.385 168.474C263.529 166.672 261.793 164.761 260.183 162.738C258.573 160.719 257.1 158.599 255.765 156.388C255.623 156.146 255.465 155.917 255.294 155.7C255.118 155.479 254.935 155.274 254.734 155.078C254.534 154.882 254.326 154.699 254.105 154.532C253.879 154.365 253.65 154.211 253.408 154.073C253.162 153.935 252.911 153.814 252.657 153.71C252.398 153.601 252.131 153.514 251.864 153.443C251.593 153.372 251.322 153.318 251.042 153.28C250.767 153.247 250.492 153.23 250.212 153.23C249.933 153.23 249.653 153.247 249.378 153.28C249.102 153.318 248.827 153.372 248.56 153.443C248.289 153.514 248.026 153.601 247.767 153.71C247.509 153.814 247.258 153.935 247.016 154.073C246.774 154.211 246.541 154.365 246.32 154.532C246.099 154.699 245.886 154.882 245.686 155.078C245.489 155.274 245.302 155.479 245.131 155.7C244.96 155.917 244.801 156.146 244.659 156.388C243.32 158.599 241.847 160.719 240.237 162.738C238.627 164.761 236.895 166.672 235.039 168.474C233.182 170.272 231.217 171.945 229.148 173.493C227.075 175.041 224.914 176.447 222.661 177.719C220.408 178.988 218.084 180.106 215.685 181.078C213.286 182.046 210.837 182.859 208.338 183.514C205.835 184.169 203.303 184.661 200.737 184.991C198.172 185.321 195.597 185.487 193.011 185.483H172.931V166.13C172.931 164.861 172.961 163.597 173.023 162.329C173.086 161.065 173.182 159.801 173.303 158.541C173.428 157.281 173.582 156.021 173.77 154.77C173.958 153.518 174.17 152.266 174.421 151.027C174.667 149.784 174.946 148.549 175.251 147.318C175.56 146.088 175.898 144.87 176.269 143.656C176.636 142.442 177.032 141.24 177.458 140.047C177.888 138.854 178.342 137.673 178.83 136.501C179.314 135.333 179.828 134.173 180.37 133.03C180.912 131.882 181.48 130.752 182.08 129.634C182.677 128.516 183.303 127.414 183.954 126.33C184.604 125.241 185.284 124.173 185.989 123.117C186.69 122.066 187.42 121.027 188.176 120.009C188.931 118.991 189.711 117.994 190.516 117.014C191.321 116.037 192.147 115.078 193.002 114.139C193.854 113.2 194.725 112.283 195.622 111.386C196.519 110.489 197.437 109.617 198.376 108.766C199.315 107.915 200.274 107.089 201.255 106.283C202.235 105.478 203.236 104.702 204.254 103.947C205.272 103.192 206.307 102.462 207.362 101.757C208.418 101.052 209.486 100.376 210.575 99.7252C211.664 99.0744 212.765 98.4486 213.883 97.852C215.001 97.2554 216.136 96.6838 217.279 96.1415C218.426 95.6033 219.586 95.086 220.758 94.6021C221.926 94.1181 223.111 93.6634 224.304 93.2337C225.498 92.8081 226.703 92.4118 227.917 92.0447C229.127 91.6775 230.35 91.3396 231.58 91.0309C232.811 90.7222 234.046 90.4426 235.289 90.1965C236.532 89.9504 237.784 89.7334 239.036 89.5499C240.291 89.3621 241.551 89.2078 242.811 89.0826C244.071 88.9574 245.335 88.8657 246.603 88.8031C247.872 88.7405 249.136 88.7113 250.404 88.7113C251.672 88.7113 252.941 88.7405 254.205 88.8031C255.473 88.8657 256.737 88.9574 257.997 89.0826C259.261 89.2078 260.517 89.3621 261.773 89.5499C263.028 89.7334 264.276 89.9504 265.519 90.1965C266.762 90.4426 268.001 90.7222 269.228 91.0309C270.458 91.3396 271.681 91.6775 272.895 92.0447C274.109 92.4118 275.31 92.8081 276.504 93.2337C277.697 93.6634 278.882 94.1181 280.054 94.6021C281.222 95.086 282.382 95.6033 283.529 96.1415C284.676 96.6838 285.807 97.2554 286.925 97.852C288.043 98.4486 289.149 99.0744 290.233 99.7252C291.322 100.376 292.394 101.052 293.446 101.757C294.501 102.462 295.536 103.192 296.554 103.947C297.576 104.702 298.573 105.478 299.553 106.283C300.534 107.089 301.493 107.915 302.432 108.766C303.371 109.617 304.289 110.489 305.186 111.386C306.083 112.283 306.959 113.2 307.81 114.139C308.661 115.078 309.487 116.037 310.292 117.014C311.097 117.994 311.877 118.991 312.632 120.009C313.388 121.027 314.118 122.066 314.823 123.117C315.528 124.173 316.204 125.241 316.854 126.33C317.509 127.414 318.131 128.516 318.732 129.634C319.328 130.752 319.9 131.882 320.438 133.03C320.98 134.173 321.498 135.333 321.982 136.501C322.466 137.673 322.92 138.854 323.35 140.047C323.776 141.24 324.176 142.442 324.543 143.656C324.91 144.87 325.248 146.088 325.557 147.318C325.866 148.549 326.141 149.784 326.391 151.027C326.638 152.266 326.855 153.518 327.038 154.77C327.226 156.021 327.38 157.281 327.505 158.541C327.631 159.801 327.722 161.065 327.785 162.329C327.847 163.597 327.877 164.861 327.877 166.13V185.483ZM366.617 243.548C366.617 243.974 366.575 244.391 366.492 244.808C366.409 245.225 366.288 245.626 366.125 246.018C365.962 246.41 365.762 246.781 365.528 247.132C365.29 247.486 365.023 247.812 364.723 248.112C364.423 248.413 364.097 248.68 363.747 248.913C363.392 249.147 363.021 249.347 362.629 249.51C362.237 249.673 361.836 249.793 361.419 249.877C361.002 249.96 360.585 250.002 360.159 250.002H338.661C340.063 243.623 340.772 237.173 340.789 230.644V198.387H360.159C360.585 198.387 361.002 198.429 361.419 198.512C361.836 198.596 362.237 198.717 362.629 198.879C363.021 199.042 363.392 199.238 363.747 199.476C364.097 199.71 364.423 199.977 364.723 200.277C365.023 200.577 365.29 200.903 365.528 201.253C365.762 201.608 365.962 201.979 366.125 202.371C366.288 202.763 366.409 203.164 366.492 203.581C366.575 203.994 366.617 204.415 366.617 204.841V243.548ZM250.404 62.9038C252.094 62.9038 253.783 62.9455 255.473 63.0289C257.163 63.1124 258.848 63.2333 260.529 63.4002C262.211 63.5671 263.888 63.7715 265.561 64.0218C267.234 64.268 268.898 64.5558 270.559 64.8854C272.215 65.215 273.863 65.5863 275.502 65.9952C277.146 66.4082 278.773 66.8587 280.392 67.3469C282.006 67.8392 283.613 68.369 285.206 68.9364C286.796 69.5079 288.373 70.1129 289.937 70.7595C291.497 71.4061 293.041 72.0903 294.572 72.8163C296.099 73.538 297.609 74.2973 299.099 75.0941C300.588 75.8868 302.061 76.7212 303.513 77.5889C304.96 78.4567 306.387 79.362 307.793 80.3007C309.199 81.2394 310.58 82.2114 311.94 83.2169C313.296 84.2223 314.631 85.2611 315.937 86.3333C317.242 87.4055 318.523 88.511 319.775 89.6458C321.026 90.7806 322.253 91.9445 323.446 93.1377C324.643 94.3309 325.807 95.5574 326.942 96.809C328.077 98.0606 329.182 99.3372 330.255 100.643C331.327 101.949 332.366 103.28 333.375 104.64C334.381 105.996 335.353 107.376 336.296 108.778C337.234 110.184 338.135 111.611 339.007 113.059C339.875 114.51 340.71 115.979 341.506 117.468C342.303 118.958 343.062 120.468 343.784 121.995C344.506 123.522 345.194 125.065 345.841 126.626C346.488 128.186 347.097 129.763 347.664 131.353C348.236 132.946 348.765 134.548 349.254 136.163C349.746 137.781 350.196 139.409 350.605 141.048C351.018 142.688 351.39 144.336 351.719 145.992C352.049 147.648 352.337 149.313 352.587 150.981C352.833 152.654 353.042 154.332 353.204 156.013C353.371 157.694 353.496 159.375 353.58 161.065C353.663 162.75 353.705 164.44 353.705 166.13V185.483H340.789V166.13C340.789 164.653 340.755 163.176 340.68 161.699C340.609 160.222 340.501 158.745 340.355 157.277C340.209 155.804 340.029 154.34 339.813 152.876C339.596 151.415 339.341 149.959 339.053 148.507C338.765 147.06 338.44 145.616 338.081 144.181C337.722 142.75 337.326 141.323 336.901 139.909C336.471 138.495 336.004 137.093 335.507 135.7C335.011 134.31 334.477 132.93 333.909 131.565C333.346 130.197 332.745 128.849 332.111 127.51C331.481 126.175 330.814 124.857 330.117 123.551C329.42 122.249 328.69 120.96 327.931 119.696C327.172 118.428 326.379 117.176 325.557 115.95C324.735 114.719 323.884 113.513 323.004 112.324C322.124 111.135 321.214 109.971 320.275 108.828C319.337 107.685 318.369 106.567 317.376 105.474C316.383 104.377 315.365 103.309 314.318 102.262C313.271 101.215 312.199 100.197 311.106 99.2037C310.008 98.2108 308.89 97.2471 307.743 96.3084C306.6 95.3697 305.436 94.4602 304.247 93.5799C303.058 92.6997 301.852 91.8486 300.621 91.0309C299.391 90.209 298.139 89.4163 296.871 88.6571C295.603 87.8978 294.318 87.1677 293.012 86.471C291.706 85.7743 290.388 85.1109 289.049 84.4768C287.714 83.8468 286.362 83.2461 284.993 82.6829C283.629 82.1155 282.248 81.5856 280.855 81.085C279.461 80.5886 278.06 80.1255 276.641 79.6958C275.227 79.2661 273.8 78.8739 272.365 78.5151C270.93 78.1563 269.491 77.8309 268.039 77.543C266.587 77.2552 265.131 77.0007 263.667 76.7838C262.202 76.5668 260.738 76.3874 259.265 76.2414C257.792 76.0954 256.316 75.9869 254.839 75.916C253.362 75.8409 251.885 75.8075 250.404 75.8075C248.927 75.8075 247.446 75.8409 245.969 75.916C244.492 75.9869 243.016 76.0954 241.547 76.2414C240.074 76.3874 238.606 76.5668 237.141 76.7838C235.677 77.0007 234.221 77.2552 232.769 77.543C231.322 77.8309 229.878 78.1563 228.443 78.5151C227.008 78.8739 225.581 79.2661 224.167 79.6958C222.752 80.1255 221.347 80.5886 219.953 81.085C218.564 81.5856 217.183 82.1155 215.815 82.6829C214.45 83.2461 213.099 83.8468 211.759 84.4768C210.424 85.1109 209.102 85.7743 207.796 86.471C206.494 87.1677 205.205 87.8978 203.937 88.6571C202.669 89.4163 201.417 90.209 200.191 91.0309C198.96 91.8486 197.75 92.6997 196.561 93.5799C195.372 94.4602 194.208 95.3697 193.065 96.3084C191.922 97.2471 190.8 98.2108 189.707 99.2037C188.609 100.197 187.537 101.215 186.494 102.262C185.447 103.309 184.425 104.377 183.432 105.474C182.439 106.567 181.475 107.685 180.537 108.828C179.598 109.971 178.689 111.135 177.804 112.324C176.924 113.513 176.073 114.719 175.251 115.95C174.429 117.176 173.641 118.428 172.877 119.696C172.118 120.96 171.388 122.249 170.691 123.551C169.994 124.857 169.331 126.175 168.697 127.51C168.063 128.849 167.466 130.197 166.899 131.565C166.331 132.93 165.802 134.31 165.301 135.7C164.804 137.093 164.341 138.495 163.912 139.909C163.482 141.323 163.086 142.75 162.727 144.181C162.368 145.616 162.043 147.06 161.755 148.507C161.467 149.959 161.212 151.415 160.995 152.876C160.779 154.34 160.599 155.804 160.453 157.277C160.307 158.745 160.199 160.222 160.128 161.699C160.057 163.176 160.019 164.653 160.019 166.13V185.483H147.107V166.13C147.107 164.44 147.149 162.75 147.232 161.065C147.316 159.375 147.437 157.694 147.604 156.013C147.77 154.332 147.975 152.654 148.225 150.981C148.471 149.313 148.763 147.648 149.093 145.992C149.423 144.336 149.79 142.688 150.203 141.048C150.612 139.409 151.062 137.781 151.554 136.163C152.047 134.548 152.577 132.946 153.144 131.353C153.715 129.763 154.325 128.186 154.971 126.626C155.618 125.065 156.302 123.522 157.024 121.995C157.746 120.468 158.509 118.958 159.306 117.468C160.103 115.979 160.933 114.51 161.805 113.059C162.673 111.611 163.578 110.184 164.517 108.778C165.455 107.376 166.427 105.996 167.437 104.64C168.442 103.28 169.481 101.949 170.553 100.643C171.626 99.3372 172.731 98.0606 173.866 96.809C175.001 95.5574 176.165 94.3309 177.362 93.1377C178.559 91.9445 179.782 90.7806 181.033 89.6458C182.285 88.511 183.566 87.4055 184.871 86.3333C186.181 85.2611 187.512 84.2223 188.868 83.2169C190.228 82.2114 191.609 81.2394 193.015 80.3007C194.421 79.362 195.848 78.4567 197.3 77.5889C198.747 76.7212 200.22 75.8868 201.709 75.0941C203.203 74.2973 204.709 73.538 206.24 72.8163C207.767 72.0903 209.311 71.4061 210.875 70.7595C212.435 70.1129 214.012 69.5079 215.606 68.9364C217.195 68.369 218.802 67.8392 220.42 67.3469C222.035 66.8587 223.666 66.4082 225.306 65.9952C226.945 65.5863 228.593 65.215 230.254 64.8854C231.91 64.5558 233.574 64.268 235.247 64.0218C236.92 63.7715 238.597 63.5671 240.279 63.4002C241.964 63.2333 243.65 63.1124 245.335 63.0289C247.025 62.9455 248.714 62.9038 250.404 62.9038ZM140.649 250.002C140.228 250.002 139.806 249.96 139.389 249.877C138.976 249.793 138.571 249.673 138.179 249.51C137.787 249.347 137.416 249.147 137.065 248.913C136.711 248.68 136.385 248.413 136.085 248.112C135.785 247.812 135.518 247.486 135.284 247.132C135.046 246.781 134.85 246.41 134.687 246.018C134.525 245.626 134.399 245.225 134.32 244.808C134.237 244.391 134.195 243.974 134.195 243.548V204.841C134.195 204.415 134.237 203.994 134.32 203.581C134.399 203.164 134.525 202.763 134.687 202.371C134.85 201.979 135.046 201.608 135.284 201.253C135.518 200.903 135.785 200.577 136.085 200.277C136.385 199.977 136.711 199.71 137.065 199.476C137.416 199.238 137.787 199.042 138.179 198.879C138.571 198.717 138.976 198.596 139.389 198.512C139.806 198.429 140.228 198.387 140.649 198.387H160.019V230.644C160.036 237.173 160.745 243.623 162.151 250.002H140.649ZM172.931 230.644V198.387H193.399C196.127 198.379 198.843 198.22 201.555 197.907C204.267 197.599 206.949 197.135 209.611 196.526C212.268 195.913 214.884 195.158 217.458 194.257C220.032 193.356 222.552 192.313 225.01 191.132C227.467 189.947 229.853 188.633 232.164 187.185C234.476 185.738 236.699 184.165 238.835 182.467C240.971 180.773 243.007 178.963 244.939 177.039C246.875 175.116 248.698 173.093 250.404 170.969C252.114 173.093 253.933 175.116 255.869 177.039C257.805 178.963 259.837 180.773 261.973 182.467C264.109 184.165 266.337 185.738 268.648 187.185C270.959 188.633 273.341 189.947 275.803 191.132C278.26 192.313 280.776 193.356 283.35 194.257C285.924 195.158 288.54 195.913 291.201 196.526C293.859 197.135 296.546 197.599 299.253 197.907C301.965 198.22 304.685 198.379 307.413 198.387H327.877V230.644C327.872 234.674 327.551 238.679 326.917 242.66C326.283 246.64 325.344 250.544 324.101 254.378C322.858 258.208 321.323 261.921 319.499 265.517C317.676 269.11 315.582 272.539 313.225 275.805H268.61C268.36 275.096 268.068 274.404 267.734 273.724C267.4 273.048 267.029 272.393 266.62 271.759C266.211 271.129 265.769 270.52 265.289 269.94C264.805 269.356 264.297 268.805 263.75 268.283C263.203 267.762 262.632 267.274 262.031 266.819C261.426 266.364 260.8 265.947 260.15 265.563C259.499 265.184 258.827 264.842 258.139 264.537C257.446 264.233 256.741 263.974 256.019 263.753C255.298 263.532 254.568 263.352 253.825 263.219C253.082 263.081 252.336 262.989 251.58 262.943C250.83 262.893 250.074 262.893 249.319 262.931C248.568 262.973 247.817 263.056 247.075 263.181C246.332 263.311 245.598 263.482 244.872 263.694C244.15 263.907 243.441 264.162 242.749 264.458C242.052 264.754 241.38 265.088 240.725 265.463C240.07 265.839 239.44 266.252 238.831 266.698C238.226 267.149 237.646 267.628 237.096 268.146C236.545 268.659 236.028 269.205 235.544 269.785C235.055 270.361 234.605 270.962 234.188 271.592C233.775 272.222 233.395 272.873 233.057 273.544C232.715 274.22 232.415 274.908 232.156 275.618C231.897 276.327 231.68 277.049 231.509 277.783C231.334 278.513 231.201 279.256 231.113 280.007C231.025 280.753 230.984 281.504 230.984 282.259C230.984 283.015 231.025 283.765 231.113 284.512C231.201 285.263 231.334 286.002 231.509 286.736C231.68 287.47 231.897 288.192 232.156 288.901C232.415 289.606 232.715 290.299 233.057 290.97C233.395 291.646 233.775 292.297 234.188 292.927C234.605 293.553 235.055 294.158 235.544 294.733C236.028 295.309 236.545 295.856 237.096 296.373C237.646 296.89 238.226 297.37 238.831 297.821C239.44 298.267 240.07 298.68 240.725 299.056C241.38 299.427 242.052 299.765 242.749 300.061C243.441 300.357 244.15 300.612 244.872 300.824C245.598 301.037 246.332 301.208 247.075 301.333C247.817 301.463 248.568 301.546 249.319 301.588C250.074 301.625 250.83 301.621 251.58 301.575C252.336 301.525 253.082 301.434 253.825 301.3C254.568 301.167 255.298 300.987 256.019 300.766C256.741 300.545 257.446 300.282 258.139 299.982C258.827 299.677 259.499 299.335 260.15 298.951C260.8 298.572 261.426 298.154 262.031 297.7C262.632 297.245 263.203 296.757 263.75 296.235C264.297 295.714 264.805 295.163 265.289 294.579C265.769 293.999 266.211 293.39 266.62 292.756C267.029 292.122 267.4 291.467 267.734 290.791C268.068 290.115 268.36 289.423 268.61 288.709H301.473C300.083 289.927 298.652 291.096 297.18 292.209C295.707 293.323 294.197 294.383 292.645 295.388C291.097 296.398 289.516 297.349 287.897 298.242C286.283 299.135 284.635 299.969 282.958 300.745C281.28 301.521 279.578 302.235 277.851 302.89C276.124 303.545 274.376 304.137 272.603 304.663C270.834 305.192 269.048 305.66 267.242 306.06C265.44 306.461 263.625 306.799 261.798 307.07C259.97 307.341 258.135 307.545 256.291 307.687C254.451 307.829 252.607 307.9 250.759 307.908C248.91 307.917 247.062 307.863 245.222 307.737C243.378 307.612 241.539 307.424 239.711 307.17C237.88 306.915 236.061 306.594 234.254 306.21C232.448 305.827 230.658 305.376 228.881 304.863C227.108 304.35 225.352 303.774 223.62 303.136C221.885 302.497 220.178 301.801 218.493 301.037C216.807 300.278 215.155 299.456 213.528 298.58C211.905 297.7 210.312 296.765 208.756 295.772C207.2 294.779 205.677 293.732 204.196 292.631C202.711 291.529 201.271 290.378 199.869 289.172C198.468 287.967 197.112 286.715 195.802 285.413C194.492 284.112 193.228 282.768 192.014 281.375C190.8 279.982 189.636 278.551 188.526 277.074C187.412 275.601 186.357 274.087 185.351 272.539C184.35 270.987 183.403 269.402 182.51 267.787C181.621 266.168 180.791 264.52 180.019 262.843C179.248 261.166 178.534 259.46 177.888 257.733C177.237 256.005 176.649 254.257 176.123 252.484C175.597 250.715 175.138 248.93 174.742 247.123C174.341 245.321 174.012 243.506 173.745 241.679C173.478 239.852 173.278 238.02 173.14 236.176C173.006 234.337 172.936 232.493 172.931 230.644ZM256.862 282.259C256.862 282.681 256.82 283.102 256.737 283.519C256.654 283.932 256.533 284.337 256.37 284.729C256.207 285.117 256.007 285.493 255.773 285.843C255.535 286.194 255.268 286.523 254.968 286.819C254.672 287.12 254.342 287.387 253.992 287.625C253.637 287.858 253.266 288.058 252.874 288.221C252.486 288.38 252.081 288.505 251.664 288.588C251.247 288.667 250.83 288.709 250.404 288.709C249.983 288.709 249.561 288.667 249.144 288.588C248.731 288.505 248.326 288.38 247.934 288.221C247.542 288.058 247.171 287.858 246.816 287.625C246.466 287.387 246.14 287.12 245.84 286.819C245.54 286.523 245.273 286.194 245.035 285.843C244.801 285.493 244.601 285.117 244.438 284.729C244.28 284.337 244.154 283.932 244.071 283.519C243.992 283.102 243.95 282.681 243.95 282.259C243.95 281.834 243.992 281.417 244.071 280.999C244.154 280.586 244.28 280.182 244.438 279.79C244.601 279.397 244.801 279.026 245.035 278.676C245.273 278.321 245.54 277.996 245.84 277.695C246.14 277.399 246.466 277.128 246.816 276.894C247.171 276.661 247.542 276.46 247.934 276.298C248.326 276.135 248.731 276.014 249.144 275.931C249.561 275.847 249.983 275.805 250.404 275.805C250.83 275.805 251.247 275.847 251.664 275.931C252.081 276.014 252.486 276.135 252.874 276.298C253.266 276.46 253.637 276.661 253.992 276.894C254.342 277.128 254.672 277.399 254.968 277.695C255.268 277.996 255.535 278.321 255.773 278.676C256.007 279.026 256.207 279.397 256.37 279.79C256.533 280.182 256.654 280.586 256.737 280.999C256.82 281.417 256.862 281.834 256.862 282.259ZM250.404 320.971C261.543 320.95 272.302 318.931 282.686 314.905V324.776L250.404 357.033L218.126 324.776V314.905C228.506 318.931 239.269 320.95 250.404 320.971ZM209.603 334.517L240.012 364.839L220.254 376.712L195.785 337.55L209.603 334.517ZM101.913 410.129C101.913 408.314 101.992 406.495 102.146 404.685C102.301 402.874 102.53 401.072 102.835 399.282C103.143 397.488 103.523 395.711 103.978 393.95C104.437 392.194 104.967 390.454 105.571 388.739C106.172 387.025 106.848 385.335 107.595 383.679C108.342 382.023 109.155 380.396 110.04 378.806C110.924 377.217 111.871 375.669 112.885 374.159C113.903 372.653 114.979 371.188 116.118 369.77C117.257 368.351 118.45 366.983 119.706 365.665C120.962 364.35 122.268 363.086 123.628 361.881C124.988 360.675 126.398 359.528 127.858 358.439C129.314 357.35 130.816 356.328 132.359 355.368C133.907 354.405 135.488 353.512 137.107 352.686C138.73 351.86 140.382 351.1 142.063 350.412C143.749 349.728 145.459 349.11 147.195 348.568C148.934 348.026 150.691 347.558 152.464 347.162L182.422 340.712L212.636 389.098C213.249 390.008 214.046 390.713 215.018 391.218C215.994 391.718 217.029 391.96 218.126 391.935C219.302 391.935 220.404 391.635 221.417 391.034L243.95 377.55V437.096H153.561V404.839H140.649V437.096H101.913V410.129ZM398.895 437.096H360.159V404.839H347.247V437.096H256.862V377.55L279.395 391.034C280.408 391.635 281.506 391.935 282.686 391.935C283.8 391.939 284.847 391.672 285.824 391.13C286.8 390.592 287.58 389.849 288.172 388.906L318.39 340.324L348.344 346.774C350.13 347.17 351.89 347.642 353.638 348.188C355.382 348.735 357.097 349.352 358.791 350.045C360.48 350.737 362.141 351.501 363.768 352.331C365.391 353.165 366.98 354.062 368.532 355.03C370.08 355.998 371.586 357.029 373.05 358.126C374.51 359.219 375.925 360.375 377.289 361.589C378.653 362.807 379.963 364.075 381.223 365.402C382.479 366.728 383.676 368.105 384.815 369.532C385.954 370.963 387.03 372.436 388.044 373.954C389.058 375.473 390.005 377.033 390.889 378.631C391.77 380.233 392.583 381.864 393.326 383.533C394.068 385.202 394.74 386.9 395.337 388.627C395.933 390.35 396.459 392.098 396.909 393.871C397.36 395.64 397.736 397.425 398.032 399.228C398.328 401.03 398.553 402.841 398.695 404.66C398.841 406.483 398.908 408.306 398.895 410.129V437.096Z" fill="#1E1E1E"/>
</svg>
