<svg width="500" height="500" viewBox="0 0 500 500" fill="none" xmlns="http://www.w3.org/2000/svg">
<g clip-path="url(#clip0_29_26)">
<path d="M396.15 301.929L292.288 361.862C289.309 363.612 285.859 364.554 282.304 364.554H194.671C189.313 364.554 184.271 366.642 180.484 370.429L179.096 371.812L114.975 307.729L132.509 290.204C135.8 286.942 140.113 284.879 144.609 284.433C145.338 284.383 146.046 284.329 146.725 284.329H198.117C203.475 284.329 208.517 286.421 212.309 290.204L213.925 291.825C217.717 295.612 222.759 297.7 228.113 297.7H282.696C286.042 297.7 289.254 298.9 291.713 301.017C294.246 303.287 295.813 306.371 296.1 309.633C296.313 311.854 296.075 313.708 295.213 315.771C294.638 317.521 293.646 319.112 292.234 320.525C289.7 323.058 286.329 324.442 282.775 324.442H225.371C221.688 324.442 218.684 327.446 218.684 331.129C218.684 334.808 221.688 337.812 225.371 337.812H282.775C289.909 337.812 296.625 335.017 301.692 329.979C303.967 327.679 305.742 325.121 306.921 322.537L382.746 278.767C386.663 276.546 391.421 276.417 395.546 278.504C397.875 279.629 399.754 281.429 401.063 283.65C402.213 285.687 402.838 287.987 402.838 290.337C402.838 295.192 400.354 299.529 396.15 301.929ZM151.271 419.683L66.1419 334.55L94.5461 306.212L179.671 391.296L151.271 419.683ZM401.504 266.521C393.459 262.446 383.946 262.679 376.084 267.171L308.959 305.9C307.859 300.208 305.038 294.983 300.542 290.987C295.604 286.679 289.284 284.329 282.696 284.329H228.113C226.338 284.329 224.638 283.625 223.384 282.371L221.767 280.75C215.442 274.433 207.054 270.958 198.117 270.958H146.725C145.704 270.958 144.713 271.037 143.379 271.117C135.725 271.875 128.513 275.296 123.05 280.75L105.517 298.275L99.2753 292.033C96.6628 289.421 92.4294 289.421 89.8169 292.033L51.9544 329.796C50.7003 331.05 49.9961 332.746 49.9961 334.521C49.9961 336.3 50.7003 337.996 51.9544 339.275L146.542 433.862C147.796 435.117 149.492 435.821 151.271 435.821C153.046 435.821 154.746 435.117 156 433.862L193.859 396.021C196.471 393.412 196.471 389.179 193.859 386.571L188.554 381.267L189.942 379.883C191.196 378.629 192.892 377.925 194.671 377.925H282.304C288.263 377.925 294.038 376.358 299.029 373.433L402.838 313.525C411.225 308.696 416.217 300.025 416.217 290.337C416.217 285.662 414.988 281.037 412.638 276.992C410.025 272.421 406.154 268.792 401.504 266.521Z" fill="#1E1E1E"/>
<path d="M416.554 237.533H189.129C178.05 237.533 169.063 228.55 169.063 217.475V143.937H436.621V217.475C436.621 228.55 427.633 237.533 416.554 237.533ZM436.621 130.567H169.063V117.196H436.621V130.567ZM189.129 77.0832H416.554C427.633 77.0832 436.621 86.0666 436.621 97.1374V103.825H169.063V97.1374C169.063 86.0666 178.05 77.0832 189.129 77.0832ZM416.554 63.7124H189.129C170.683 63.7124 155.688 78.7041 155.688 97.1374V217.475C155.688 235.912 170.683 250.904 189.129 250.904H416.554C435 250.904 450 235.912 450 217.475V97.1374C450 78.7041 435 63.7124 416.554 63.7124Z" fill="#1E1E1E"/>
<path d="M396.489 210.792C393.197 210.792 390.168 209.617 387.789 207.554C389.068 204.417 389.802 200.996 389.802 197.421C389.802 193.842 389.068 190.421 387.789 187.288C390.168 185.225 393.197 184.05 396.489 184.05C403.86 184.05 409.868 190.054 409.868 197.421C409.868 204.783 403.86 210.792 396.489 210.792ZM363.043 210.792C355.677 210.792 349.668 204.783 349.668 197.421C349.668 190.054 355.677 184.05 363.043 184.05C370.414 184.05 376.422 190.054 376.422 197.421C376.422 204.783 370.414 210.792 363.043 210.792ZM396.489 170.679C390.272 170.679 384.393 172.871 379.689 176.658C375.118 172.975 369.368 170.679 363.043 170.679C348.281 170.679 336.289 182.667 336.289 197.421C336.289 212.175 348.281 224.163 363.043 224.163C369.368 224.163 375.118 221.863 379.689 218.179C384.393 221.967 390.272 224.163 396.489 224.163C411.252 224.163 423.247 212.175 423.247 197.421C423.247 182.667 411.252 170.679 396.489 170.679Z" fill="#1E1E1E"/>
<path d="M289.466 210.792H209.195V197.421H289.466V210.792ZM296.154 184.05H202.508C198.824 184.05 195.82 187.054 195.82 190.733V217.475C195.82 221.158 198.824 224.163 202.508 224.163H296.154C299.837 224.163 302.841 221.158 302.841 217.475V190.733C302.841 187.054 299.837 184.05 296.154 184.05Z" fill="#1E1E1E"/>
</g>
<defs>
<clipPath id="clip0_29_26">
<rect width="400" height="400" fill="white" transform="translate(50 50)"/>
</clipPath>
</defs>
</svg>
