<svg width="2000" height="2000" viewBox="0 0 2000 2000" fill="none" xmlns="http://www.w3.org/2000/svg">
<rect width="2000" height="2000" rx="200" fill="#1E1E1E"/>
<path d="M715.068 1011.82C715.068 1171.35 843.442 1302.26 999.88 1302.26C1146.01 1302.26 1267.67 1187.99 1283.03 1042.65H874.144C874.144 953.829 944.692 881.891 1031.8 881.891H1442.36V1011.57C1442.36 1259.2 1242.72 1462.53 1000.12 1462.53C757.295 1462.53 557.894 1258.95 557.894 1011.57C557.894 763.962 757.534 560.632 1000.12 560.632H1600C1599.76 472.054 1529.21 400.116 1442.12 400.116H999.88C668.51 400.116 400 673.917 400 1011.82C400 1349.73 668.51 1623.52 999.88 1623.52C1331.27 1623.52 1599.76 1349.73 1599.76 1011.82V721.392H999.88C843.442 721.392 715.068 852.295 715.068 1011.82Z" fill="white"/>
</svg>
