<svg width="2000" height="2000" viewBox="0 0 2000 2000" fill="none" xmlns="http://www.w3.org/2000/svg">
<path d="M667.58 999.65C667.58 1185.78 817.349 1338.5 999.86 1338.5C1170.35 1338.5 1312.28 1205.19 1330.2 1035.62H853.168C853.168 931.999 935.474 848.071 1037.1 848.071H1516.09V999.365C1516.09 1288.26 1283.18 1525.48 1000.14 1525.48C716.844 1525.48 484.209 1287.98 484.209 999.365C484.209 710.487 717.123 473.269 1000.14 473.269H1700C1699.72 369.928 1617.41 286 1515.81 286H999.86C613.262 286 300 605.434 300 999.65C300 1393.89 613.262 1713.3 999.86 1713.3C1386.48 1713.3 1699.72 1393.89 1699.72 999.65V660.823H999.86C817.349 660.823 667.58 813.542 667.58 999.65Z" fill="#1F1F1F"/>
</svg>
