<svg width="4013" height="1305" viewBox="0 0 4013 1305" fill="none" xmlns="http://www.w3.org/2000/svg">
<path d="M342.496 652.318C342.496 822.422 482.072 962.005 652.135 962.005C811.003 962.005 943.263 840.156 959.952 685.182H515.449C515.449 590.469 592.149 513.75 686.84 513.75H1133.17V652.057C1133.17 916.094 916.134 1132.92 652.395 1132.92C388.422 1132.92 171.651 915.833 171.651 652.057C171.651 387.995 388.683 171.172 652.395 171.172H1304.56C1304.3 76.7187 1227.6 0 1132.9 0H652.135C291.909 0 0 291.979 0 652.318C0 1012.63 291.909 1304.61 652.135 1304.61C1012.39 1304.61 1304.3 1012.63 1304.3 652.318V342.604H652.135C482.072 342.604 342.496 482.187 342.496 652.318Z" fill="#1E1E1E"/>
<path d="M2701.9 399.583C2668.58 399.583 2642.75 391.666 2624.42 375.833C2606.14 359.999 2597.99 337.656 2599.95 308.749L2651.08 301.249C2650.51 319.166 2654.99 332.473 2664.51 341.145C2674.02 349.843 2689.09 354.166 2709.71 354.166C2728.17 354.166 2742.41 350.39 2752.41 342.812C2762.46 335.26 2767.51 325.104 2767.51 312.395C2767.51 303.593 2764.41 296.77 2758.24 291.979C2752.05 287.187 2744.08 283.281 2734.29 280.208C2724.5 277.161 2714.09 274.01 2703.05 270.729C2692.06 267.395 2681.62 262.994 2671.7 257.499C2661.83 252.031 2653.79 244.452 2647.54 234.791C2641.34 225.156 2638.27 212.343 2638.27 196.354C2638.27 177.135 2643.3 160.156 2653.37 145.416C2663.42 130.702 2677.12 119.218 2694.4 110.937C2711.74 102.682 2731.43 98.541 2753.45 98.541C2781.78 98.541 2803.99 105.781 2820.1 120.208C2836.19 134.661 2843.85 154.27 2843.01 179.062L2794.38 186.874C2793.81 158.281 2778.97 143.958 2749.81 143.958C2732.15 143.958 2718.38 148.229 2708.46 156.77C2698.52 165.312 2693.57 176.197 2693.57 189.374C2693.57 198.749 2696.64 206.119 2702.84 211.458C2709.09 216.822 2717.05 221.145 2726.79 224.479C2736.58 227.812 2746.94 231.093 2757.93 234.27C2768.97 237.395 2779.38 241.51 2789.17 246.562C2798.96 251.64 2807.01 258.645 2813.33 267.604C2819.63 276.562 2822.81 288.489 2822.81 303.333C2822.81 323.411 2817.5 340.624 2806.88 354.999C2796.31 369.322 2781.93 380.312 2763.76 388.02C2745.64 395.729 2725.02 399.583 2701.9 399.583Z" fill="#FB374F"/>
<path d="M2945.77 399.583C2917.44 399.583 2894.66 392.031 2877.45 376.875C2860.29 361.744 2851.73 340.677 2851.73 313.646C2851.99 289.687 2857.35 267.89 2867.76 248.229C2878.23 228.515 2892.68 212.89 2911.09 201.354C2929.55 189.765 2951.03 183.958 2975.55 183.958C2998.93 183.958 3017.36 189.557 3030.85 200.729C3044.31 211.927 3051.05 226.302 3051.05 243.854C3051.05 262.057 3044.6 277.161 3031.68 289.166C3018.77 301.119 2999.63 307.786 2974.3 309.166L2901.61 313.646C2902.16 326.849 2907.13 337.161 2916.5 344.583C2925.88 352.031 2938.53 355.729 2954.51 355.729C2964.1 355.729 2973.99 353.698 2984.19 349.583C2994.4 345.494 3002.78 339.869 3009.4 332.708L3032.52 363.646C3012.94 387.604 2984.01 399.583 2945.77 399.583ZM2971.8 221.979C2954.98 221.979 2940.92 227.161 2929.62 237.5C2918.38 247.786 2910.83 260.911 2907.03 276.875L2970.14 273.229C2982.55 272.396 2991.59 269.583 2997.21 264.791C3002.84 259.948 3005.65 253.515 3005.65 245.521C3005.65 238.385 3002.84 232.682 2997.21 228.437C2991.59 224.14 2983.1 221.979 2971.8 221.979Z" fill="#FB374F"/>
<path d="M3165.01 399.583C3136.94 399.583 3115.02 392.291 3099.19 377.708C3083.36 363.073 3075.45 343.099 3075.45 317.812C3075.45 299.896 3078.47 282.89 3084.51 266.771C3090.55 250.677 3099.11 236.432 3110.23 224.062C3121.4 211.718 3134.7 201.953 3150.11 194.791C3165.53 187.578 3182.61 183.958 3201.35 183.958C3237.39 183.958 3262.12 198.177 3275.61 226.562L3235.2 253.75C3229.16 237.291 3216.35 229.062 3196.77 229.062C3183.02 228.802 3170.97 232.5 3160.63 240.208C3150.35 247.916 3142.23 258.099 3136.26 270.729C3130.35 283.385 3127.41 297.265 3127.41 312.396C3127.41 326.146 3131.19 336.718 3138.76 344.062C3146.31 351.354 3157.67 355 3172.82 355C3182.19 355 3191.15 352.89 3199.69 348.646C3208.23 344.349 3215.78 337.916 3222.39 329.375L3253.32 358.229C3243.17 371.979 3230.56 382.343 3215.52 389.271C3200.52 396.146 3183.67 399.583 3165.01 399.583Z" fill="#FB374F"/>
<path d="M3406.52 183.958C3432.06 183.958 3452.55 191.146 3467.96 205.521C3483.37 219.843 3491.08 239.765 3491.08 265.312C3491.08 284.349 3487.9 301.979 3481.6 318.229C3475.28 334.479 3466.45 348.724 3455.15 360.937C3443.9 373.177 3430.57 382.682 3415.16 389.479C3399.75 396.198 3382.93 399.583 3364.76 399.583C3338.64 399.583 3317.74 392.5 3302.06 378.333C3286.36 364.114 3278.53 344.062 3278.53 318.229C3278.53 301.146 3281.47 284.635 3287.38 268.646C3293.26 252.682 3301.7 238.307 3312.69 225.521C3323.72 212.76 3337.08 202.656 3352.78 195.208C3368.45 187.708 3386.37 183.958 3406.52 183.958ZM3371.84 355.416C3384.75 355.416 3396.26 351.51 3406.41 343.646C3416.62 335.807 3424.59 325.494 3430.37 312.708C3436.2 299.869 3439.11 286.015 3439.11 271.146C3439.11 257.396 3435.6 246.875 3428.6 239.583C3421.57 232.291 3411.57 228.646 3398.6 228.646C3384.57 228.646 3372.46 232.708 3362.26 240.833C3352.1 248.906 3344.34 259.349 3338.93 272.187C3333.57 284.974 3330.91 298.385 3330.91 312.396C3330.91 325.937 3334.4 336.51 3341.43 344.062C3348.43 351.64 3358.56 355.416 3371.84 355.416Z" fill="#FB374F"/>
<path d="M3514.17 395.833L3538.54 257.916C3541.04 243.333 3543.07 230.573 3544.69 219.583C3546.35 208.541 3547.6 197.786 3548.43 187.291H3598.42C3597.02 205.781 3593.32 225.599 3587.28 246.771C3598.03 226.432 3610.97 210.885 3626.12 200.104C3641.25 189.349 3658.3 183.958 3677.26 183.958C3700.38 183.958 3717.2 191.666 3727.77 207.083C3738.39 222.5 3740.39 245.104 3733.81 274.896L3719.75 339.687C3717.87 349.062 3716.44 358.437 3715.48 367.812C3714.49 377.135 3714.02 386.458 3714.02 395.833H3662.78C3662.78 378.203 3664.71 360.599 3668.61 343.021L3683.09 276.458C3686.34 260.781 3685.82 249.271 3681.53 241.979C3677.28 234.687 3669.68 231.041 3658.72 231.041C3646.02 231.041 3633.86 235.937 3622.27 245.729C3610.74 255.521 3600.09 272.396 3590.3 296.354C3580.56 320.312 3572 353.489 3564.58 395.833H3514.17Z" fill="#FB374F"/>
<path d="M3843.16 399.583C3820.04 399.583 3801.87 392.786 3788.69 379.166C3775.49 365.494 3768.91 346.406 3768.91 321.875C3768.91 302.369 3772.06 284.27 3778.38 267.604C3784.68 250.937 3793.54 236.354 3804.94 223.854C3816.39 211.354 3829.83 201.614 3845.24 194.583C3860.66 187.5 3877.45 183.958 3895.65 183.958C3914.03 183.958 3930.01 187.682 3943.55 195.104L3944.7 187.291L3961.67 90.312H4012.49L3970.73 324.791C3968.49 338.541 3966.7 351.77 3965.32 364.479C3963.99 377.135 3963.34 387.578 3963.34 395.833H3913.35C3913.35 388.958 3913.82 381.744 3914.81 374.166C3915.77 366.614 3916.94 359.244 3918.35 352.083C3908.98 368.333 3897.99 380.312 3885.44 388.02C3872.94 395.729 3858.83 399.583 3843.16 399.583ZM3858.05 355C3875.39 355 3890.54 347.239 3903.46 331.666C3916.37 316.119 3925.17 295.39 3929.91 269.479L3934.8 240.625C3925.69 232.083 3913.06 227.812 3896.9 227.812C3881.48 227.812 3868.1 231.744 3856.8 239.583C3845.55 247.447 3836.81 257.89 3830.56 270.937C3824.36 284.01 3821.29 298.515 3821.29 314.479C3821.29 341.51 3833.53 355 3858.05 355Z" fill="#FB374F"/>
<path d="M1863.26 614.715V1092.42H1745.48L1749.33 1008.88C1732.25 1038 1709.91 1060.63 1682.37 1076.8C1654.8 1092.89 1623.32 1100.97 1587.91 1100.97C1546.1 1100.97 1510.64 1091.33 1481.48 1072.01C1452.37 1052.71 1430.24 1025.97 1415.03 991.798C1399.88 957.58 1392.33 918.309 1392.33 873.986C1392.33 820.809 1402.77 774.09 1423.68 733.882C1444.56 693.673 1473.2 662.189 1509.6 639.403C1545.97 616.642 1586.92 605.236 1632.48 605.236C1662.89 605.236 1689.79 611.746 1713.19 624.715C1736.65 637.71 1754.69 654.975 1767.35 676.486L1778.7 614.715H1863.26ZM1641.02 707.84C1601.79 707.84 1570.47 722.736 1547.09 752.528C1523.68 782.267 1511.99 821.173 1511.99 869.298C1511.99 910.418 1520.84 942.397 1538.55 965.236C1556.25 988.022 1580.62 999.403 1611.65 999.403C1636.99 999.403 1659.92 992.111 1680.49 977.528C1701.03 962.944 1717.31 942.71 1729.33 916.798C1741.41 890.835 1747.46 861.043 1747.46 827.423C1747.46 790.08 1737.93 760.809 1718.92 739.611C1699.97 718.439 1673.98 707.84 1641.02 707.84Z" fill="#1E1E1E"/>
<path d="M2434.81 389.611V1092.42H2317.03L2320.88 1008.88C2303.8 1038.62 2281.65 1061.38 2254.44 1077.22C2227.2 1093.05 2195.55 1100.97 2159.46 1100.97C2117.65 1100.97 2082.19 1091.33 2053.03 1072.01C2023.92 1052.71 2001.79 1025.97 1986.59 991.798C1971.43 957.58 1963.88 918.309 1963.88 873.986C1963.88 820.809 1974.32 774.09 1995.23 733.882C2016.11 693.673 2044.75 662.189 2081.15 639.403C2117.52 616.642 2158.47 605.236 2204.03 605.236C2228.12 605.236 2250.12 609.376 2270.06 617.632C2289.98 625.835 2306.61 637.215 2319.94 651.798L2319.01 612.84V389.611H2434.81ZM2212.57 707.84C2173.34 707.84 2142.02 722.736 2118.64 752.528C2095.23 782.267 2083.54 821.173 2083.54 869.298C2083.54 910.418 2092.39 942.397 2110.1 965.236C2127.8 988.022 2152.17 999.403 2183.21 999.403C2208.54 999.403 2231.47 992.111 2252.04 977.528C2272.58 962.944 2288.86 942.71 2300.89 916.798C2312.97 890.835 2319.01 861.043 2319.01 827.423C2319.01 790.08 2309.48 760.809 2290.47 739.611C2271.52 718.439 2245.53 707.84 2212.57 707.84Z" fill="#1E1E1E"/>
<path d="M2731.02 1291.9C2703.16 1291.9 2673.24 1289.01 2641.25 1283.26C2609.3 1277.55 2582.87 1268.07 2561.99 1254.82L2590.53 1154.19C2611.36 1164.95 2633.96 1173.49 2658.32 1179.82C2682.69 1186.12 2708.83 1189.3 2736.74 1189.3C2793.03 1189.3 2832.89 1175.99 2856.3 1149.4C2879.76 1122.79 2892.75 1081.04 2895.25 1024.09L2897.12 994.611C2879.42 1024.35 2857.08 1046.98 2830.16 1062.53C2803.29 1078.02 2771.79 1085.76 2735.7 1085.76C2692.72 1085.76 2656.16 1076.59 2626.04 1058.26C2595.97 1039.87 2573.35 1014.19 2558.14 981.278C2542.99 948.361 2535.44 910.705 2535.44 868.257C2535.44 817.007 2545.7 771.59 2566.26 732.007C2586.81 692.423 2615.26 661.434 2651.66 638.986C2688.11 616.486 2730.08 605.236 2777.57 605.236C2809.15 605.236 2836.64 611.746 2860.05 624.715C2883.5 637.71 2901.55 654.975 2914.2 676.486L2925.66 614.715H3010.12V1009.82C3010.12 1104.12 2985.43 1174.72 2936.07 1221.59C2886.71 1268.47 2818.34 1291.9 2731.02 1291.9ZM2786.11 707.84C2746.17 707.84 2714.35 722.085 2690.61 750.548C2666.92 779.038 2655.1 815.731 2655.1 860.653C2655.1 899.975 2664.26 930.392 2682.59 951.903C2700.92 973.439 2725.91 984.194 2757.57 984.194C2783.53 984.194 2806.78 977.085 2827.35 962.84C2847.97 948.543 2864.26 929.064 2876.29 904.403C2888.3 879.689 2894.31 851.85 2894.31 820.861C2894.31 785.392 2884.47 757.684 2864.84 737.736C2845.26 717.814 2819.02 707.84 2786.11 707.84Z" fill="#1E1E1E"/>
<path d="M3362.4 1100.97C3310.45 1100.97 3265.65 1091.33 3227.95 1072.01C3190.3 1052.71 3161.35 1025.03 3141.09 988.986C3120.89 952.892 3110.79 909.793 3110.79 859.715C3110.79 809.715 3121.23 765.6 3142.14 727.319C3163.02 688.986 3191.34 659.064 3227.12 637.528C3262.86 616.017 3303.5 605.236 3349.07 605.236C3423.14 605.236 3477.73 630.418 3512.88 680.757C3548 731.121 3560.19 800.6 3549.43 889.194H3228.47C3231.02 922.736 3244.64 949.663 3269.29 969.923C3294 990.21 3327.87 1000.34 3370.93 1000.34C3391.19 1000.34 3411.6 995.913 3432.17 987.007C3452.71 978.126 3470.29 964.507 3484.87 946.173L3552.25 1014.51C3530.71 1041.75 3504.6 1062.94 3473.93 1078.15C3443.24 1093.36 3406.06 1100.97 3362.4 1100.97ZM3350.94 692.632C3318.66 692.632 3292.05 702.788 3271.17 723.048C3250.34 743.257 3237.06 770.496 3231.39 804.715H3449.77C3451.02 765.418 3442.43 736.903 3424.05 719.194C3405.72 701.486 3381.35 692.632 3350.94 692.632Z" fill="#1E1E1E"/>
<path d="M3852.31 1100.96C3794.67 1100.96 3749.86 1085.13 3717.86 1053.46C3685.92 1021.8 3670.27 980.34 3670.9 929.09L3674.75 709.715H3593.1V612.84H3676.62L3677.56 514.09H3793.37L3791.49 612.84H3948.12V709.715H3790.55L3787.74 916.694C3787.12 942.684 3793.6 963.126 3807.22 978.048C3820.81 992.918 3841.22 1000.34 3868.45 1000.34C3882.95 1000.34 3896.52 998.439 3909.17 994.611C3921.88 990.809 3935.21 983.829 3949.16 973.673L3983.32 1062.94C3968.74 1075.65 3950.05 1085.18 3927.29 1091.49C3904.51 1097.79 3879.52 1100.96 3852.31 1100.96Z" fill="#1E1E1E"/>
</svg>
