<svg width="788" height="256" viewBox="0 0 788 256" fill="none" xmlns="http://www.w3.org/2000/svg">
<path d="M67.1761 127.944C67.1761 161.307 94.5521 188.685 127.908 188.685C159.068 188.685 185.009 164.786 188.282 134.39H101.099C101.099 115.813 116.142 100.765 134.715 100.765H222.256V127.893C222.256 179.68 179.688 222.207 127.959 222.207C76.184 222.207 33.6672 179.629 33.6672 127.893C33.6672 76.1001 76.235 33.5731 127.959 33.5731H255.872C255.821 15.0474 240.777 0 222.204 0H127.908C57.2541 0 0 57.2679 0 127.944C0 198.614 57.2541 255.882 127.908 255.882C198.566 255.882 255.821 198.614 255.821 127.944V67.1973H127.908C94.5521 67.1973 67.1761 94.5748 67.1761 127.944Z" fill="white" fill-opacity="0.5"/>
<path d="M529.947 78.3729C523.411 78.3729 518.345 76.8202 514.75 73.7147C511.165 70.6092 509.567 66.2267 509.95 60.5571L519.979 59.0861C519.867 62.6002 520.745 65.2103 522.614 66.9112C524.478 68.6171 527.435 69.465 531.479 69.465C535.1 69.465 537.893 68.7244 539.854 67.2381C541.825 65.7568 542.816 63.7648 542.816 61.2722C542.816 59.5458 542.208 58.2076 540.998 57.2678C539.782 56.3279 538.22 55.5618 536.3 54.9591C534.38 54.3615 532.337 53.7434 530.172 53.0999C528.017 52.4461 525.969 51.5829 524.024 50.5051C522.088 49.4325 520.51 47.9461 519.285 46.0512C518.069 44.1613 517.467 41.6483 517.467 38.5122C517.467 34.7427 518.452 31.4124 520.429 28.5214C522.4 25.6356 525.086 23.3831 528.476 21.7588C531.877 20.1396 535.738 19.3275 540.058 19.3275C545.614 19.3275 549.97 20.7475 553.131 23.5771C556.286 26.4119 557.788 30.2581 557.624 35.1206L548.085 36.6529C547.973 31.0447 545.062 28.2354 539.343 28.2354C535.881 28.2354 533.18 29.0731 531.234 30.7484C529.283 32.4237 528.313 34.5588 528.313 37.1433C528.313 38.9821 528.916 40.4276 530.131 41.4746C531.357 42.5268 532.919 43.3747 534.829 44.0285C536.749 44.6823 538.781 45.3259 540.936 45.949C543.101 46.562 545.144 47.369 547.064 48.3599C548.984 49.3559 550.562 50.7299 551.803 52.4869C553.039 54.244 553.662 56.5833 553.662 59.4947C553.662 63.4328 552.62 66.809 550.537 69.6285C548.463 72.4377 545.645 74.5932 542.08 76.1051C538.526 77.617 534.482 78.3729 529.947 78.3729Z" fill="#FB374F" fill-opacity="0.5"/>
<path d="M577.771 78.3731C572.215 78.3731 567.747 76.8918 564.371 73.9191C561.006 70.9515 559.326 66.8194 559.326 61.5176C559.377 56.8185 560.429 52.5433 562.472 48.6869C564.525 44.8204 567.359 41.7557 570.969 39.493C574.59 37.2201 578.802 36.0811 583.613 36.0811C588.198 36.0811 591.814 37.1792 594.459 39.3704C597.099 41.5668 598.422 44.3862 598.422 47.8288C598.422 51.3991 597.155 54.3616 594.622 56.7163C592.09 59.0607 588.336 60.3683 583.368 60.639L569.11 61.5176C569.217 64.1072 570.193 66.1298 572.031 67.5856C573.87 69.0464 576.351 69.7717 579.487 69.7717C581.366 69.7717 583.306 69.3733 585.308 68.5662C587.31 67.7643 588.954 66.6611 590.251 65.2564L594.786 71.3244C590.946 76.0235 585.272 78.3731 577.771 78.3731ZM582.877 43.5383C579.579 43.5383 576.821 44.5548 574.605 46.5826C572.399 48.6001 570.918 51.1744 570.172 54.3054L582.551 53.5904C584.986 53.4269 586.758 52.8753 587.861 51.9355C588.964 50.9854 589.516 49.7238 589.516 48.1557C589.516 46.7562 588.964 45.6376 587.861 44.8051C586.758 43.9623 585.094 43.5383 582.877 43.5383Z" fill="#FB374F" fill-opacity="0.5"/>
<path d="M620.775 78.3731C615.271 78.3731 610.971 76.9429 607.866 74.0826C604.761 71.212 603.209 67.2944 603.209 62.3348C603.209 58.8207 603.801 55.4853 604.986 52.3236C606.171 49.1671 607.851 46.3731 610.031 43.947C612.222 41.5259 614.831 39.6105 617.854 38.2059C620.877 36.791 624.227 36.0811 627.904 36.0811C634.971 36.0811 639.823 38.8699 642.468 44.4373L634.543 49.7698C633.358 46.5417 630.845 44.9276 627.005 44.9276C624.309 44.8766 621.945 45.6019 619.917 47.1138C617.9 48.6256 616.307 50.6228 615.138 53.1C613.979 55.5824 613.402 58.3048 613.402 61.2724C613.402 63.9693 614.142 66.043 615.628 67.4834C617.109 68.9136 619.335 69.6286 622.307 69.6286C624.146 69.6286 625.902 69.2149 627.577 68.3824C629.252 67.5396 630.733 66.278 632.03 64.6026L638.097 70.262C636.105 72.9589 633.634 74.9918 630.682 76.3504C627.741 77.6989 624.437 78.3731 620.775 78.3731Z" fill="#FB374F" fill-opacity="0.5"/>
<path d="M668.143 36.0811C673.152 36.0811 677.171 37.4908 680.194 40.3103C683.217 43.1195 684.729 47.0269 684.729 52.0376C684.729 55.7714 684.106 59.2293 682.87 62.4165C681.629 65.6038 679.898 68.3977 677.682 70.7932C675.476 73.1938 672.861 75.0582 669.838 76.3913C666.815 77.7091 663.516 78.3731 659.952 78.3731C654.83 78.3731 650.729 76.9838 647.655 74.2052C644.576 71.4164 643.039 67.4834 643.039 62.4165C643.039 59.0659 643.616 55.8275 644.775 52.6914C645.929 49.5604 647.584 46.7409 649.739 44.233C651.904 41.7302 654.524 39.7484 657.603 38.2876C660.677 36.8166 664.19 36.0811 668.143 36.0811ZM661.341 69.7104C663.874 69.7104 666.131 68.9442 668.122 67.4017C670.124 65.8642 671.687 63.8416 672.82 61.3337C673.964 58.8156 674.536 56.0983 674.536 53.1817C674.536 50.4849 673.847 48.4213 672.473 46.9912C671.094 45.561 669.133 44.8459 666.59 44.8459C663.838 44.8459 661.463 45.6427 659.462 47.2363C657.47 48.8197 655.948 50.8679 654.886 53.3861C653.834 55.894 653.313 58.5244 653.313 61.2724C653.313 63.9284 653.998 66.0022 655.376 67.4834C656.75 68.9697 658.736 69.7104 661.341 69.7104Z" fill="#FB374F" fill-opacity="0.5"/>
<path d="M689.256 77.6377L694.036 50.5871C694.526 47.7268 694.924 45.224 695.241 43.0686C695.568 40.9029 695.813 38.7934 695.976 36.735H705.781C705.505 40.3615 704.78 44.2484 703.595 48.401C705.704 44.4119 708.242 41.3626 711.214 39.248C714.181 37.1385 717.525 36.0812 721.243 36.0812C725.778 36.0812 729.076 37.5931 731.15 40.6168C733.233 43.6406 733.626 48.0741 732.334 53.9174L729.577 66.6254C729.209 68.4642 728.928 70.303 728.739 72.1418C728.545 73.9703 728.453 75.7989 728.453 77.6377H718.404C718.404 74.1798 718.782 70.7269 719.548 67.2792L722.387 54.2238C723.025 51.149 722.923 48.8914 722.08 47.4612C721.248 46.031 719.757 45.316 717.607 45.316C715.115 45.316 712.73 46.2762 710.458 48.1967C708.196 50.1172 706.107 53.427 704.187 58.1262C702.277 62.8253 700.597 69.3325 699.142 77.6377H689.256Z" fill="#FB374F" fill-opacity="0.5"/>
<path d="M753.788 78.373C749.254 78.373 745.689 77.0399 743.106 74.3685C740.517 71.687 739.225 67.943 739.225 63.1315C739.225 59.3058 739.842 55.756 741.083 52.487C742.319 49.2181 744.055 46.3577 746.292 43.906C748.539 41.4543 751.174 39.544 754.197 38.1649C757.22 36.7756 760.514 36.081 764.083 36.081C767.688 36.081 770.824 36.8114 773.479 38.2671L773.704 36.7348L777.033 17.7136H787.001L778.81 63.7036C778.371 66.4005 778.019 68.9952 777.748 71.4878C777.488 73.9701 777.36 76.0183 777.36 77.6375H767.556C767.556 76.289 767.647 74.8742 767.841 73.3879C768.03 71.9066 768.26 70.4611 768.536 69.0565C766.698 72.2437 764.543 74.5933 762.081 76.1052C759.63 77.6171 756.862 78.373 753.788 78.373ZM756.709 69.6286C760.11 69.6286 763.082 68.1065 765.615 65.052C768.148 62.0027 769.874 57.937 770.803 52.8548L771.763 47.1954C769.976 45.5201 767.499 44.6824 764.328 44.6824C761.305 44.6824 758.68 45.4537 756.464 46.9911C754.258 48.5336 752.542 50.5818 751.317 53.1408C750.101 55.7049 749.499 58.5499 749.499 61.6809C749.499 66.9828 751.899 69.6286 756.709 69.6286Z" fill="#FB374F" fill-opacity="0.5"/>
<path d="M365.452 120.568V214.265H342.351L343.106 197.879C339.756 203.589 335.375 208.028 329.972 211.2C324.565 214.357 318.391 215.94 311.446 215.94C303.245 215.94 296.29 214.05 290.571 210.26C284.862 206.475 280.521 201.23 277.539 194.528C274.567 187.817 273.086 180.114 273.086 171.421C273.086 160.991 275.134 151.828 279.234 143.941C283.33 136.055 288.947 129.88 296.086 125.41C303.219 120.946 311.252 118.709 320.188 118.709C326.153 118.709 331.428 119.986 336.019 122.53C340.619 125.078 344.158 128.465 346.64 132.684L348.866 120.568H365.452ZM321.863 138.834C314.168 138.834 308.025 141.755 303.439 147.598C298.848 153.431 296.555 161.062 296.555 170.502C296.555 178.567 298.292 184.839 301.764 189.318C305.237 193.788 310.016 196.02 316.103 196.02C321.072 196.02 325.571 194.59 329.605 191.729C333.634 188.869 336.825 184.9 339.185 179.818C341.554 174.726 342.739 168.882 342.739 162.288C342.739 154.964 340.87 149.223 337.142 145.065C333.424 140.912 328.328 138.834 321.863 138.834Z" fill="white" fill-opacity="0.5"/>
<path d="M477.562 76.4172V214.265H454.46L455.216 197.879C451.866 203.712 447.52 208.176 442.184 211.282C436.843 214.387 430.633 215.94 423.555 215.94C415.354 215.94 408.399 214.05 402.68 210.26C396.971 206.475 392.63 201.23 389.648 194.528C386.676 187.817 385.195 180.114 385.195 171.421C385.195 160.991 387.243 151.828 391.344 143.941C395.439 136.055 401.056 129.88 408.195 125.411C415.329 120.946 423.361 118.709 432.298 118.709C437.021 118.709 441.336 119.521 445.248 121.14C449.154 122.749 452.417 124.982 455.032 127.842L454.848 120.201V76.4172H477.562ZM433.973 138.834C426.277 138.834 420.134 141.755 415.548 147.599C410.958 153.432 408.665 161.063 408.665 170.502C408.665 178.567 410.401 184.839 413.873 189.319C417.346 193.788 422.126 196.02 428.213 196.02C433.181 196.02 437.68 194.59 441.714 191.729C445.743 188.869 448.935 184.9 451.294 179.818C453.663 174.726 454.848 168.882 454.848 162.288C454.848 154.964 452.979 149.223 449.251 145.065C445.534 140.913 440.438 138.834 433.973 138.834Z" fill="white" fill-opacity="0.5"/>
<path d="M535.651 253.39C530.187 253.39 524.32 252.823 518.044 251.694C511.778 250.575 506.595 248.716 502.5 246.116L508.096 226.38C512.182 228.489 516.614 230.165 521.394 231.406C526.173 232.642 531.3 233.265 536.775 233.265C547.815 233.265 555.633 230.655 560.224 225.44C564.825 220.22 567.373 212.032 567.863 200.862L568.231 195.08C564.758 200.913 560.377 205.351 555.097 208.401C549.827 211.44 543.648 212.957 536.57 212.957C528.139 212.957 520.97 211.159 515.062 207.563C509.164 203.957 504.726 198.921 501.744 192.465C498.772 186.008 497.291 178.623 497.291 170.297C497.291 160.245 499.303 151.337 503.337 143.573C507.366 135.81 512.948 129.731 520.086 125.329C527.236 120.916 535.467 118.709 544.782 118.709C550.976 118.709 556.368 119.986 560.959 122.53C565.56 125.078 569.099 128.465 571.58 132.684L573.827 120.568H590.393V198.063C590.393 216.558 585.552 230.405 575.87 239.599C566.188 248.793 552.778 253.39 535.651 253.39ZM546.456 138.833C538.623 138.833 532.383 141.627 527.726 147.21C523.079 152.798 520.761 159.995 520.761 168.806C520.761 176.518 522.558 182.484 526.153 186.703C529.748 190.927 534.65 193.037 540.86 193.037C545.951 193.037 550.511 191.642 554.545 188.848C558.59 186.044 561.786 182.224 564.145 177.387C566.5 172.539 567.679 167.079 567.679 161.001C567.679 154.044 565.749 148.61 561.899 144.697C558.058 140.79 552.911 138.833 546.456 138.833Z" fill="white" fill-opacity="0.5"/>
<path d="M659.498 215.94C649.31 215.94 640.522 214.05 633.128 210.26C625.744 206.475 620.065 201.046 616.092 193.977C612.13 186.897 610.148 178.444 610.148 168.622C610.148 158.815 612.196 150.163 616.297 142.654C620.392 135.136 625.948 129.267 632.964 125.043C639.976 120.824 647.947 118.709 656.883 118.709C671.411 118.709 682.12 123.648 689.013 133.522C695.902 143.4 698.292 157.027 696.183 174.404H633.23C633.73 180.983 636.401 186.264 641.237 190.238C646.083 194.217 652.726 196.204 661.173 196.204C665.146 196.204 669.149 195.335 673.183 193.588C677.212 191.847 680.659 189.175 683.519 185.58L696.734 198.982C692.511 204.325 687.389 208.483 681.374 211.466C675.353 214.448 668.061 215.94 659.498 215.94ZM657.251 135.851C650.919 135.851 645.7 137.843 641.605 141.816C637.519 145.78 634.915 151.123 633.802 157.834H676.635C676.88 150.127 675.195 144.534 671.59 141.061C667.995 137.587 663.215 135.851 657.251 135.851Z" fill="white" fill-opacity="0.5"/>
<path d="M755.583 215.94C744.277 215.94 735.488 212.834 729.213 206.623C722.947 200.412 719.878 192.281 720 182.229L720.756 139.201H704.742V120.2H721.124L721.308 100.832H744.021L743.654 120.2H774.375V139.201H743.47L742.918 179.797C742.796 184.895 744.067 188.905 746.738 191.831C749.404 194.748 753.407 196.204 758.749 196.204C761.593 196.204 764.253 195.831 766.735 195.08C769.227 194.334 771.842 192.965 774.579 190.973L781.279 208.483C778.419 210.975 774.752 212.845 770.289 214.081C765.821 215.317 760.919 215.94 755.583 215.94Z" fill="white" fill-opacity="0.5"/>
</svg>
